<?xml version="1.0" standalone="no"?>
<!DOCTYPE svg PUBLIC "-//W3C//DTD SVG 20010904//EN"
 "http://www.w3.org/TR/2001/REC-SVG-20010904/DTD/svg10.dtd">
<svg version="1.0" xmlns="http://www.w3.org/2000/svg"
 width="300.000000pt" height="300.000000pt" viewBox="0 0 300.000000 300.000000"
 preserveAspectRatio="xMidYMid meet">
<metadata>
Created by potrace 1.10, written by Peter Selinger 2001-2011
</metadata>
<g transform="translate(0.000000,300.000000) scale(0.100000,-0.100000)"
fill="#000000" stroke="none">
<path d="M1576 2422 c-2 -15 -8 -49 -11 -77 -3 -27 -8 -57 -11 -66 -3 -10 3
-18 14 -21 17 -5 21 4 31 76 14 102 14 103 -3 109 -10 4 -16 -3 -20 -21z"/>
<path d="M1275 2422 c-33 -8 -61 -16 -63 -17 -2 -2 25 -136 33 -162 3 -7 11
-10 20 -6 13 4 15 14 10 39 -6 33 -5 34 35 40 25 4 40 12 40 21 0 11 -9 13
-44 8 -38 -6 -44 -4 -49 14 -6 25 -2 28 51 37 43 7 47 11 34 30 -5 7 -25 6
-67 -4z"/>
<path d="M1647 2358 c-10 -40 -20 -83 -23 -95 -5 -18 -2 -23 13 -23 16 0 23
15 40 87 12 48 19 91 17 95 -15 24 -32 1 -47 -64z"/>
<path d="M1390 2347 c0 -69 25 -97 71 -80 16 6 29 7 29 2 0 -5 7 -9 15 -9 12
0 15 14 15 70 0 62 -2 70 -19 70 -16 0 -18 -6 -14 -37 6 -49 -17 -83 -44 -67
-12 8 -19 26 -21 58 -2 32 -7 46 -18 46 -10 0 -14 -14 -14 -53z"/>
<path d="M1802 2338 c-21 -21 -13 -47 23 -84 53 -53 25 -78 -33 -29 -29 24
-42 24 -42 -1 0 -17 62 -54 92 -54 54 0 64 51 18 95 -16 16 -30 35 -30 42 0
20 38 15 61 -8 16 -16 24 -18 33 -9 8 9 4 17 -17 36 -30 26 -85 32 -105 12z"/>
<path d="M1093 2264 c-22 -9 -31 -19 -27 -29 7 -18 4 -18 42 0 20 10 29 21 25
30 -3 8 -6 15 -7 14 0 0 -15 -7 -33 -15z"/>
<path d="M1970 2260 c0 -5 -9 -10 -21 -10 -15 0 -19 -4 -15 -16 3 -9 -3 -28
-14 -44 -26 -37 -25 -65 2 -84 26 -19 47 1 21 20 -15 10 -14 14 6 43 19 26 26
30 37 20 20 -16 31 -2 16 21 -8 13 -8 21 -1 25 7 5 6 11 -2 21 -13 16 -29 18
-29 4z"/>
<path d="M935 2221 c-3 -12 -13 -21 -20 -21 -30 0 -25 -23 15 -71 34 -39 45
-47 56 -38 12 9 10 16 -11 41 -27 31 -32 57 -15 74 8 8 6 15 -4 23 -12 10 -16
8 -21 -8z"/>
<path d="M2034 2158 c-4 -7 -2 -14 4 -16 19 -6 42 -32 42 -48 0 -18 -14 -18
-30 2 -23 27 -50 37 -66 23 -23 -19 -16 -50 22 -87 l35 -34 31 28 c45 43 51
59 34 92 -17 33 -61 58 -72 40z m0 -74 c9 -3 16 -13 16 -21 0 -21 -44 -12 -48
10 -4 18 6 21 32 11z"/>
<path d="M833 2130 c-50 -20 -56 -90 -11 -123 24 -18 30 -18 58 -7 26 11 60
53 60 75 0 16 -32 1 -39 -19 -8 -19 -29 -36 -47 -36 -14 0 0 31 26 55 17 16
30 32 30 35 0 6 -47 31 -53 29 -1 0 -12 -4 -24 -9z m21 -56 c-9 -13 -20 -24
-25 -24 -16 0 -9 39 8 49 27 14 35 3 17 -25z"/>
<path d="M2091 2004 c-25 -32 -25 -37 -6 -73 13 -26 33 -41 56 -41 17 0 9 25
-11 38 -35 21 -19 72 22 72 19 0 42 -33 30 -44 -8 -9 19 -26 31 -19 12 7 -1
54 -20 76 -25 27 -78 22 -102 -9z"/>
<path d="M720 1990 c-11 -11 -20 -29 -20 -39 0 -10 -7 -22 -16 -25 -26 -10
-13 -23 66 -70 51 -30 77 -40 82 -32 12 18 10 22 -19 35 l-28 13 23 15 c32 22
30 75 -4 102 -33 26 -58 27 -84 1z m68 -32 c16 -16 15 -43 -3 -58 -12 -10 -20
-9 -40 4 -14 9 -25 22 -25 29 0 18 21 37 40 37 9 0 21 -5 28 -12z"/>
<path d="M2205 1897 c-38 -17 -71 -32 -73 -33 -1 -1 0 -8 3 -16 4 -10 16 -13
35 -10 34 5 36 2 14 -39 -8 -17 -12 -39 -8 -51 5 -18 9 -16 31 22 18 29 30 40
42 37 65 -21 64 -21 52 1 -6 11 -27 26 -46 32 -19 6 -35 15 -35 19 0 4 19 14
43 22 23 9 43 23 45 32 5 24 -22 20 -103 -16z"/>
<path d="M641 1824 c-29 -37 -27 -78 5 -103 35 -27 59 -26 89 4 34 33 33 77
-1 104 -36 28 -68 26 -93 -5z m84 -34 c14 -43 -44 -67 -68 -29 -16 26 -1 49
32 49 21 0 32 -6 36 -20z"/>
<path d="M540 1682 c0 -17 12 -22 89 -36 109 -20 101 -20 101 3 0 15 -13 20
-72 30 -40 7 -83 14 -95 18 -18 4 -23 1 -23 -15z"/>
<path d="M2286 1666 l-88 -9 6 -36 c3 -20 6 -51 6 -68 0 -24 5 -33 16 -33 13
0 15 9 12 50 -1 28 0 50 4 50 3 0 13 3 21 6 11 4 16 -6 21 -41 9 -59 32 -56
27 3 -2 36 0 42 18 42 16 0 21 -9 27 -45 4 -28 11 -45 20 -45 10 0 12 15 7 68
-3 37 -6 67 -7 67 -1 0 -41 -4 -90 -9z"/>
<path d="M596 1591 c-43 -48 12 -136 71 -115 35 12 57 55 48 95 -8 37 -31 32
-27 -5 3 -26 -12 -56 -28 -56 -4 0 -5 23 -2 50 4 48 3 50 -20 50 -14 0 -33 -9
-42 -19z m44 -46 c0 -38 -13 -46 -29 -18 -6 11 -6 24 0 35 16 29 29 21 29 -17z"/>
<path d="M2210 1485 c0 -9 14 -16 38 -20 58 -10 62 -13 62 -40 0 -27 -3 -28
-67 -25 -32 1 -43 -2 -43 -13 0 -29 98 -37 125 -10 12 11 15 26 12 50 -3 18
-2 33 4 33 24 0 5 28 -22 34 -57 11 -109 7 -109 -9z"/>
<path d="M580 1436 c0 -7 22 -19 53 -27 l52 -15 -42 -24 c-30 -18 -43 -32 -43
-47 0 -21 3 -20 63 18 34 22 62 44 61 50 -1 5 -2 13 -2 18 -1 5 -31 16 -67 25
-77 19 -75 19 -75 2z"/>
<path d="M2141 1329 c-26 -42 -27 -81 -3 -101 9 -8 45 -25 80 -36 52 -17 64
-19 68 -7 3 8 3 18 0 23 -3 6 1 15 9 22 35 29 10 88 -42 104 -32 10 -77 -35
-70 -70 5 -28 -10 -28 -27 -1 -8 13 -7 25 7 49 26 45 5 61 -22 17z m129 -44
c24 -28 -9 -72 -45 -59 -15 6 -21 55 -8 67 11 12 40 8 53 -8z"/>
<path d="M657 1299 c-29 -17 -39 -56 -22 -88 23 -45 67 -54 105 -23 29 24 30
77 1 106 -24 24 -41 14 -23 -14 15 -24 16 -70 2 -70 -5 0 -10 6 -11 13 0 6 -8
29 -17 49 -14 31 -20 35 -35 27z m31 -61 c13 -35 10 -43 -13 -34 -19 7 -29 31
-21 51 9 24 21 18 34 -17z"/>
<path d="M2126 1174 c-3 -9 -6 -17 -6 -18 0 -1 27 -15 61 -31 50 -24 62 -27
69 -15 7 11 -6 22 -53 47 -33 18 -62 33 -63 33 -1 0 -5 -7 -8 -16z"/>
<path d="M701 1134 c-37 -31 -40 -67 -11 -122 37 -70 31 -69 113 -17 l76 48
-30 43 c-54 79 -96 92 -148 48z m110 -45 c12 -18 18 -34 12 -38 -5 -3 -27 -17
-48 -30 l-38 -24 -18 22 c-23 29 -24 59 -2 83 26 29 68 23 94 -13z"/>
<path d="M2096 1115 c-3 -9 8 -25 30 -41 24 -19 34 -34 32 -48 -4 -31 -34 -31
-75 0 -28 21 -37 24 -44 13 -5 -8 -9 -16 -9 -19 0 -9 87 -60 102 -60 19 0 48
32 48 53 0 9 6 17 14 17 33 0 19 27 -31 62 -62 44 -59 43 -67 23z"/>
<path d="M2270 1089 c0 -14 5 -19 17 -17 26 5 29 38 4 38 -15 0 -21 -6 -21
-21z"/>
<path d="M1955 948 c-32 -37 -16 -52 19 -19 12 12 31 21 41 21 15 0 11 -8 -20
-41 -39 -39 -39 -41 -21 -55 27 -19 49 -18 80 7 34 27 36 81 4 103 -36 26 -73
20 -103 -16z m95 -42 c0 -16 -7 -27 -21 -31 -31 -10 -35 2 -9 30 29 31 30 31
30 1z"/>
<path d="M895 935 c-41 -40 -28 -88 29 -109 18 -6 18 -8 -4 -31 -22 -23 -20
-46 3 -44 11 0 108 117 115 139 2 6 -4 13 -13 16 -9 4 -28 18 -41 30 -30 31
-59 30 -89 -1z m84 -29 c14 -16 1 -51 -21 -59 -33 -11 -66 42 -41 66 11 12 50
7 62 -7z"/>
<path d="M1843 870 c-18 -11 -33 -24 -33 -29 0 -20 20 -21 40 -1 21 21 45 26
54 11 3 -5 -15 -21 -40 -36 -44 -26 -45 -27 -28 -46 26 -29 81 -22 107 13 18
24 18 30 7 58 -22 52 -56 62 -107 30z m69 -80 c-13 -11 -30 -16 -39 -13 -13 5
-11 10 13 29 20 16 32 20 39 13 7 -7 3 -16 -13 -29z"/>
<path d="M1060 856 c0 -9 6 -16 14 -16 20 0 62 -37 53 -46 -4 -4 -27 2 -51 13
-49 24 -56 22 -56 -16 0 -32 8 -44 37 -60 34 -18 60 -13 82 15 27 34 26 57 -1
88 -29 32 -78 46 -78 22z m51 -99 c-16 -16 -61 1 -61 23 0 19 1 19 35 3 22
-10 32 -20 26 -26z"/>
<path d="M1745 821 c-3 -5 2 -26 12 -45 15 -33 15 -37 0 -54 -18 -20 -22 -42
-8 -42 5 0 14 6 20 14 7 8 21 12 31 9 25 -7 25 -3 -1 68 -20 55 -39 73 -54 50z"/>
<path d="M1187 721 c-25 -44 -42 -82 -39 -85 14 -15 30 -2 57 49 17 30 33 55
36 55 4 0 10 -29 14 -65 9 -83 29 -88 69 -15 36 67 46 70 46 16 0 -55 15 -96
35 -96 10 0 13 7 9 28 -3 15 -8 56 -12 92 -6 56 -10 65 -29 68 -16 2 -27 -8
-49 -47 -15 -28 -30 -51 -34 -51 -4 0 -10 25 -12 56 -4 50 -17 73 -39 74 -4 0
-27 -36 -52 -79z"/>
<path d="M1588 723 c-29 -4 -36 -17 -18 -28 19 -12 69 5 63 21 -3 8 -8 13 -12
13 -3 -1 -18 -4 -33 -6z"/>
</g>
</svg>
