<?xml version="1.0" standalone="no"?>
<!DOCTYPE svg PUBLIC "-//W3C//DTD SVG 20010904//EN"
 "http://www.w3.org/TR/2001/REC-SVG-20010904/DTD/svg10.dtd">
<svg version="1.0" xmlns="http://www.w3.org/2000/svg"
 width="500.000000pt" height="500.000000pt" viewBox="0 0 500.000000 500.000000"
 preserveAspectRatio="xMidYMid meet">

<g transform="translate(0.000000,500.000000) scale(0.100000,-0.100000)"
fill="#000000" stroke="none">
<path d="M2755 4589 c-5 -14 -38 -246 -50 -350 l-7 -56 32 -7 c48 -9 49 -9 54
27 33 199 58 378 54 383 -3 3 -22 7 -42 11 -25 4 -37 2 -41 -8z"/>
<path d="M2085 4554 c-55 -13 -110 -24 -123 -24 -12 0 -25 -6 -28 -14 -3 -8 4
-59 16 -113 12 -54 28 -129 37 -168 24 -114 20 -106 61 -99 20 3 40 9 43 13 4
3 0 35 -7 70 -7 36 -12 66 -10 68 2 2 42 13 89 24 l86 21 -6 31 c-3 18 -7 33
-8 35 -2 2 -42 -6 -90 -17 -48 -12 -88 -21 -90 -21 -3 0 -25 93 -25 104 0 1
45 13 100 26 103 24 111 30 94 74 -8 20 -17 20 -139 -10z"/>
<path d="M2941 4533 c-6 -21 -15 -58 -21 -83 -6 -25 -24 -99 -40 -164 -17 -66
-27 -123 -23 -127 5 -3 24 -9 44 -13 l36 -6 12 57 c7 32 29 122 48 201 21 83
32 147 27 151 -5 5 -23 12 -41 16 -30 6 -32 5 -42 -32z"/>
<path d="M2330 4377 c3 -87 9 -129 19 -141 37 -44 121 -59 171 -31 33 19 40
18 40 -1 0 -13 7 -15 31 -10 17 3 35 6 40 6 5 0 9 68 9 150 l0 150 -45 0 -45
0 0 -94 c0 -111 -14 -139 -70 -139 -56 0 -70 28 -70 139 l0 94 -42 0 -43 0 5
-123z"/>
<path d="M3289 4383 c-33 -20 -59 -63 -59 -97 0 -26 38 -76 98 -130 54 -47 63
-86 25 -100 -24 -9 -102 30 -139 70 -32 36 -34 37 -59 20 -32 -21 -32 -28 5
-69 42 -48 138 -97 190 -97 79 0 137 71 113 137 -5 12 -39 54 -76 92 -59 62
-67 73 -57 91 21 39 102 16 149 -42 l23 -29 24 22 c32 30 30 42 -13 78 -81 67
-170 88 -224 54z"/>
<path d="M1675 4199 c-33 -16 -64 -34 -68 -38 -7 -7 4 -42 18 -59 2 -2 96 40
143 64 4 2 -27 64 -31 64 -1 0 -29 -14 -62 -31z"/>
<path d="M3636 4179 c-16 -28 -19 -29 -40 -16 -19 13 -23 12 -40 -10 -16 -22
-16 -26 -2 -41 14 -16 11 -24 -34 -91 -53 -77 -58 -96 -36 -139 16 -31 93 -79
106 -66 22 24 20 52 -5 68 -14 9 -25 23 -25 32 0 17 76 124 89 124 5 0 20 -9
34 -20 l25 -20 17 27 c18 26 17 27 -9 50 -27 23 -27 23 -9 54 l18 31 -30 24
c-16 13 -32 24 -35 24 -3 0 -14 -14 -24 -31z"/>
<path d="M1316 4109 c-14 -17 -26 -40 -26 -52 0 -20 -1 -20 -14 -2 -13 18 -14
18 -44 -6 -17 -13 -31 -26 -31 -29 -1 -3 32 -46 72 -96 39 -51 81 -105 93
-120 l20 -28 38 29 37 28 -24 26 c-51 55 -97 123 -97 145 0 13 11 35 25 50
l25 28 -24 29 -24 29 -26 -31z"/>
<path d="M3786 3958 c-9 -35 -8 -37 29 -52 55 -23 89 -100 54 -122 -4 -2 -27
14 -50 37 -46 46 -99 72 -126 62 -66 -23 -84 -97 -37 -153 30 -35 80 -64 94
-55 6 3 10 2 10 -4 0 -5 -5 -13 -11 -17 -7 -4 0 -17 17 -35 l28 -29 78 77 c87
86 106 124 89 176 -18 54 -115 137 -160 137 -5 0 -11 -10 -15 -22z m10 -180
l36 -32 -22 -18 c-12 -10 -28 -18 -35 -18 -23 0 -65 41 -65 64 0 47 35 49 86
4z"/>
<path d="M1082 3895 c-67 -30 -118 -118 -106 -183 9 -48 67 -109 115 -122 74
-20 165 25 205 102 16 30 19 88 5 88 -27 0 -61 -21 -61 -38 0 -32 -58 -82 -96
-82 -41 0 -42 6 -6 46 85 97 122 142 122 146 0 2 -13 14 -28 25 -39 29 -108
37 -150 18z m77 -64 c11 -7 5 -20 -34 -63 -26 -29 -53 -53 -59 -53 -6 0 -12
16 -14 36 -3 30 2 41 28 63 33 27 55 32 79 17z"/>
<path d="M3949 3660 c-40 -21 -79 -87 -79 -133 0 -80 82 -177 150 -177 17 0
20 6 20 40 0 34 -3 40 -20 40 -12 0 -32 11 -45 25 -35 34 -33 78 4 116 57 57
141 23 141 -58 0 -33 4 -40 31 -52 27 -12 33 -12 40 0 28 44 -11 145 -74 190
-48 35 -112 38 -168 9z"/>
<path d="M850 3601 c-43 -23 -72 -70 -74 -121 0 -32 -3 -37 -17 -29 -14 7 -20
1 -34 -28 -15 -31 -16 -38 -4 -46 123 -74 241 -144 269 -158 19 -11 44 -26 56
-34 19 -14 22 -13 43 25 l22 40 -30 17 c-16 10 -44 26 -62 36 l-33 18 32 19
c18 11 41 34 52 52 77 127 -86 281 -220 209z m126 -95 c41 -41 44 -77 9 -111
-29 -30 -68 -32 -112 -5 -29 17 -33 25 -33 64 0 36 5 48 26 65 38 30 71 26
110 -13z"/>
<path d="M4340 3444 c-50 -23 -160 -69 -261 -110 l-87 -35 16 -40 c16 -42 24
-45 61 -25 18 10 31 11 52 2 16 -6 29 -15 29 -21 0 -5 -16 -36 -34 -69 -33
-57 -34 -60 -20 -98 7 -21 16 -44 20 -49 3 -6 29 31 58 83 58 106 56 105 159
63 34 -13 63 -23 65 -21 2 2 -6 23 -18 46 -19 36 -32 47 -103 80 -77 36 -81
39 -57 48 14 6 63 27 110 46 46 20 85 36 86 36 1 0 -5 18 -13 40 -18 45 -16
45 -63 24z"/>
<path d="M705 3256 c-66 -30 -105 -94 -105 -173 0 -162 226 -211 297 -64 10
21 17 60 17 93 1 69 -20 103 -84 136 -50 25 -82 27 -125 8z m95 -91 c38 -20
53 -49 45 -86 -8 -38 -40 -59 -88 -59 -78 0 -116 84 -61 135 31 29 62 31 104
10z"/>
<path d="M426 2906 c-17 -61 -17 -61 137 -89 201 -38 269 -49 272 -45 1 2 5
20 9 40 8 43 17 38 -144 67 -296 53 -268 50 -274 27z"/>
<path d="M4365 2853 c-221 -22 -205 -17 -205 -66 1 -52 24 -255 31 -261 2 -2
19 -1 37 1 32 5 33 8 28 37 -3 17 -8 65 -12 107 l-6 76 41 7 c23 3 46 4 50 1
5 -2 12 -45 15 -95 l8 -91 31 7 c18 3 33 7 34 8 2 1 -2 42 -7 91 -6 48 -9 89
-8 90 2 1 22 5 46 8 48 6 47 9 57 -108 9 -101 9 -102 51 -97 30 4 35 7 31 26
-3 11 -11 78 -18 149 l-12 127 -26 -1 c-14 -1 -89 -8 -166 -16z"/>
<path d="M625 2731 c-51 -13 -74 -30 -95 -71 -44 -86 -15 -191 63 -229 78 -38
148 -20 200 51 29 39 35 137 12 189 -10 21 -21 39 -25 39 -3 0 -16 -10 -28
-23 -15 -16 -18 -27 -12 -37 5 -8 10 -36 10 -61 0 -35 -5 -51 -23 -67 -13 -12
-26 -22 -30 -22 -3 0 -8 53 -9 117 -3 128 -3 128 -63 114z m11 -229 c-11 -10
-56 29 -62 53 -8 33 14 85 40 95 20 7 21 4 24 -68 2 -41 1 -77 -2 -80z"/>
<path d="M4187 2484 c-4 -4 -7 -24 -7 -44 l0 -38 87 -7 c77 -6 90 -10 115 -35
32 -33 35 -59 10 -90 -20 -25 -36 -27 -148 -16 l-82 8 -4 -42 c-2 -23 -1 -43
3 -46 4 -2 60 -7 126 -10 116 -6 118 -6 145 19 44 41 56 134 24 186 -4 6 -1
11 7 11 17 0 27 21 27 54 0 22 -5 24 -122 35 -68 6 -134 14 -148 17 -14 2 -29
2 -33 -2z"/>
<path d="M510 2356 c0 -55 7 -60 109 -85 54 -13 103 -26 109 -30 7 -4 -30 -31
-83 -61 -87 -50 -95 -58 -95 -85 0 -44 15 -63 37 -48 10 6 71 44 136 84 115
70 117 72 117 108 0 20 -4 41 -8 47 -4 7 -78 29 -164 51 -153 38 -158 38 -158
19z"/>
<path d="M4047 2136 c-64 -69 -93 -188 -58 -243 29 -46 58 -62 211 -113 l138
-46 11 35 c9 30 8 38 -5 48 -14 10 -13 13 9 28 37 24 60 89 52 144 -19 123
-185 163 -262 63 -23 -31 -28 -47 -28 -94 0 -32 -3 -58 -6 -58 -4 0 -18 9 -33
21 -20 15 -26 29 -26 57 0 38 29 97 58 120 15 11 14 15 -10 39 l-26 26 -25
-27z m242 -121 c16 -8 31 -22 35 -30 23 -60 -17 -128 -74 -128 -24 0 -40 7
-57 27 -33 38 -29 72 11 112 38 38 45 40 85 19z"/>
<path d="M815 2038 c-20 -29 -19 -41 4 -55 36 -22 46 -105 18 -140 -14 -19
-24 -8 -42 50 -19 59 -56 157 -60 157 -1 0 -19 -7 -38 -15 -80 -33 -111 -138
-64 -220 62 -109 195 -115 271 -12 44 59 16 199 -48 240 -24 16 -26 16 -41 -5z
m-71 -147 c32 -78 32 -81 4 -81 -35 0 -68 38 -68 78 0 29 26 80 36 70 1 -2 14
-32 28 -67z"/>
<path d="M3991 1743 l-19 -39 135 -68 136 -68 18 23 c10 13 19 31 19 39 0 9
-50 40 -126 80 -69 36 -130 66 -134 68 -5 2 -18 -14 -29 -35z"/>
<path d="M824 1692 c-53 -29 -71 -46 -94 -85 -19 -31 -22 -49 -18 -105 3 -63
8 -74 67 -167 35 -55 65 -102 67 -104 2 -2 18 7 36 21 18 13 93 62 166 107 72
46 132 85 132 88 0 11 -102 167 -129 196 -58 64 -161 86 -227 49z m154 -88
c23 -13 92 -103 92 -119 0 -5 -119 -85 -126 -85 -3 0 -20 -11 -38 -25 -41 -31
-51 -31 -68 -1 -7 13 -21 38 -32 56 -22 40 -23 101 -2 131 39 56 120 76 174
43z"/>
<path d="M3926 1618 l-26 -33 24 -20 c13 -11 49 -39 80 -62 48 -37 56 -47 56
-76 0 -39 -31 -77 -63 -77 -12 0 -55 25 -95 55 -40 30 -77 55 -82 55 -8 0 -50
-52 -50 -63 0 -7 134 -104 169 -121 39 -21 76 -20 113 2 33 19 68 78 68 116 0
18 4 23 18 19 11 -2 25 6 39 26 l23 30 -73 53 c-39 30 -95 71 -124 91 l-51 37
-26 -32z"/>
<path d="M4314 1585 c-24 -36 -6 -75 34 -75 35 0 52 16 52 50 0 53 -57 69 -86
25z"/>
<path d="M3669 1297 c-51 -27 -109 -98 -109 -133 0 -21 5 -24 33 -24 29 0 35
5 46 35 18 50 82 80 120 56 10 -7 4 -18 -29 -47 -24 -22 -63 -58 -88 -80 l-44
-41 28 -27 c82 -75 203 -47 254 59 38 78 5 170 -74 206 -54 25 -84 24 -137 -4z
m151 -152 c0 -55 -58 -98 -101 -75 -21 12 -20 14 32 66 29 29 56 51 61 48 4
-3 8 -20 8 -39z"/>
<path d="M1254 1241 c-67 -41 -105 -122 -85 -182 17 -52 66 -98 111 -105 l39
-6 -46 -60 -46 -60 29 -24 c16 -13 32 -23 36 -24 4 0 66 73 137 163 l131 162
-31 28 c-22 20 -34 25 -43 18 -9 -8 -15 -2 -24 22 -26 72 -140 109 -208 68z
m125 -76 c49 -25 55 -77 15 -124 -21 -25 -34 -31 -64 -31 -87 0 -108 112 -29
156 31 17 44 17 78 -1z"/>
<path d="M3373 1079 c-79 -39 -119 -110 -69 -123 18 -4 33 3 65 34 45 43 82
51 115 27 17 -13 12 -18 -63 -63 -45 -27 -92 -57 -104 -66 l-22 -17 43 -43
c40 -41 45 -43 101 -43 133 0 209 120 148 235 -41 77 -129 101 -214 59z m167
-156 c0 -25 -52 -73 -80 -73 -78 0 -77 24 3 71 60 36 76 36 77 2z"/>
<path d="M1590 1032 c0 -35 11 -52 35 -52 47 0 87 -22 101 -57 8 -19 12 -38 9
-43 -3 -5 -50 14 -105 41 -54 28 -103 48 -109 45 -17 -11 -33 -77 -26 -112 13
-70 95 -134 173 -134 83 0 164 100 148 182 -16 81 -84 137 -178 146 -43 4 -48
2 -48 -16z m56 -174 c75 -40 72 -37 50 -54 -30 -22 -74 -17 -101 11 -24 23
-35 75 -17 75 5 0 35 -14 68 -32z"/>
<path d="M3160 965 c-40 -14 -40 -16 -6 -108 14 -37 26 -79 26 -92 0 -21 -33
-58 -62 -67 -6 -2 -4 -17 6 -42 l16 -38 30 22 c16 11 34 29 40 38 8 14 11 15
19 3 7 -11 15 -11 45 -1 31 10 36 15 30 33 -9 30 -101 258 -105 261 -2 2 -20
-2 -39 -9z"/>
<path d="M1895 759 c-44 -77 -90 -159 -102 -182 l-22 -42 36 -8 c49 -10 45
-15 160 193 34 61 43 69 43 39 1 -50 30 -273 37 -280 5 -4 24 -9 42 -11 33 -3
37 0 73 62 20 36 46 83 58 105 11 22 29 51 40 65 18 23 20 23 20 5 0 -35 20
-239 25 -262 4 -16 15 -23 46 -28 22 -4 42 -5 44 -3 5 4 -45 410 -50 416 -2 2
-25 4 -51 5 l-48 2 -34 -60 c-19 -33 -46 -80 -59 -105 -48 -86 -49 -84 -63 69
l-13 141 -36 10 c-20 5 -43 10 -51 10 -9 0 -48 -59 -95 -141z"/>
<path d="M2782 727 l-64 -11 6 -30 c4 -16 8 -31 10 -33 1 -2 37 2 79 8 78 12
82 15 71 57 -7 24 -7 24 -102 9z"/>
</g>
</svg>
